<svg width="40" height="40" viewBox="0 0 40 40" fill="none" xmlns="http://www.w3.org/2000/svg">
<path d="M40 20C40 31.0457 31.0457 40 20 40C8.9543 40 0 31.0457 0 20C0 8.9543 8.9543 0 20 0C31.0457 0 40 8.9543 40 20Z" fill="#16A4BD"/>
<path d="M19.7795 25.6414C22.5995 25.6414 23.9795 22.5614 23.9795 18.6414C23.9795 14.7614 22.5995 11.6614 19.7795 11.6614C16.9595 11.6614 15.5395 14.7614 15.5395 18.6414C15.5395 22.5614 16.9595 25.6414 19.7795 25.6414ZM22.9195 30.5014C19.9795 30.5014 18.6195 28.5014 18.5595 26.2614C15.4795 25.7014 13.0195 23.0614 13.0195 18.6414C13.0195 13.7414 16.1595 10.9414 19.7795 10.9414C23.3995 10.9414 26.5195 13.7014 26.5195 18.6414C26.5195 23.1014 23.9795 25.8014 20.8195 26.2814C20.7595 28.3614 21.8995 29.6414 23.6795 29.6414C24.3195 29.6414 24.8195 29.5414 25.4195 29.3014L25.6195 29.8014C24.8595 30.2614 23.8595 30.5014 22.9195 30.5014Z" fill="white"/>
</svg>
