<svg width="238" height="40" viewBox="0 0 238 40" fill="none" xmlns="http://www.w3.org/2000/svg">
<path d="M94.536 18.2016C91.5732 18.2016 88.8438 15.5513 88.8438 9.17205C88.8438 2.83966 91.5732 0.212891 94.536 0.212891C97.4988 0.212891 100.205 2.83966 100.205 9.17205C100.205 15.5513 97.4988 18.2016 94.536 18.2016ZM94.536 17.4276C96.1224 17.4276 97.6621 15.5279 97.6621 9.17205C97.6621 2.88657 96.1224 0.986849 94.536 0.986849C92.9263 0.986849 91.4099 2.86311 91.4099 9.17205C91.4099 15.5513 92.9263 17.4276 94.536 17.4276Z" fill="white"/>
<path d="M72.6952 17.8263V16.2549C74.1649 14.5428 75.6347 12.8308 76.7778 11.4939C79.274 8.53881 80.3471 6.94398 80.3471 4.66901C80.3471 2.30023 79.1573 0.963396 77.1977 0.963396C76.7078 0.963396 76.2412 1.03376 75.7513 1.19793L75.2147 3.40254C74.9814 4.5752 74.4449 4.90355 73.8617 4.90355C73.3251 4.90355 72.8585 4.59865 72.6719 4.08268C72.9752 1.52627 75.378 0.212891 78.0375 0.212891C81.3736 0.212891 83.0066 2.01879 83.0066 4.78628C83.0066 7.10815 81.3269 8.8437 77.4776 12.432C76.7778 13.0887 75.4947 14.3787 74.1883 15.7155H83.6132V17.8263H72.6952Z" fill="white"/>
<path d="M58.8199 17.8262V17.1461L61.806 16.7708L61.8526 12.3616V1.97181L58.7266 2.44087V1.66692L64.2322 0.330078L64.5821 0.588066L64.4888 4.31714V12.3616L64.5355 16.7708L67.335 17.193V17.8731L58.8199 17.8262Z" fill="white"/>
<path d="M47.5282 18.2016C44.5654 18.2016 41.8359 15.5513 41.8359 9.17205C41.8359 2.83966 44.5654 0.212891 47.5282 0.212891C50.491 0.212891 53.1972 2.83966 53.1972 9.17205C53.1972 15.5513 50.491 18.2016 47.5282 18.2016ZM47.5282 17.4276C49.1146 17.4276 50.6543 15.5279 50.6543 9.17205C50.6543 2.88657 49.1146 0.986849 47.5282 0.986849C45.9185 0.986849 44.4021 2.86311 44.4021 9.17205C44.4021 15.5513 45.9185 17.4276 47.5282 17.4276Z" fill="white"/>
<path d="M215.1 18.223V13.5323H208.031V12.1017L215.683 0.304688H217.479V11.7499H220.162V13.5323H217.479V18.223H215.1ZM209.151 11.7499H215.1V2.46239L212.347 6.77779L209.151 11.7499Z" fill="white"/>
<path d="M198.608 18.223V13.5323H191.539V12.1017L199.191 0.304688H200.987V11.7499H203.67V13.5323H200.987V18.223H198.608ZM192.659 11.7499H198.608V2.46239L195.855 6.77779L192.659 11.7499Z" fill="white"/>
<path d="M175.672 17.8263V16.2549C177.141 14.5428 178.611 12.8308 179.754 11.4939C182.251 8.53881 183.324 6.94398 183.324 4.66901C183.324 2.30023 182.134 0.963396 180.174 0.963396C179.684 0.963396 179.218 1.03376 178.728 1.19793L178.191 3.40254C177.958 4.5752 177.421 4.90355 176.838 4.90355C176.302 4.90355 175.835 4.59865 175.648 4.08268C175.952 1.52627 178.355 0.212891 181.014 0.212891C184.35 0.212891 185.983 2.01879 185.983 4.78628C185.983 7.10815 184.303 8.8437 180.454 12.432C179.754 13.0887 178.471 14.3787 177.165 15.7155H186.59V17.8263H175.672Z" fill="white"/>
<path d="M149.992 17.8262V17.1461L152.978 16.7708L153.025 12.3616V1.97181L149.898 2.44087V1.66692L155.404 0.330078L155.754 0.588066L155.661 4.31714V12.3616L155.707 16.7708L158.507 17.193V17.8731L149.992 17.8262Z" fill="white"/>
<path d="M138.163 18.2016C135.177 18.2016 133.381 16.8882 132.984 14.5428C133.194 13.9565 133.661 13.6751 134.151 13.6751C134.851 13.6751 135.294 14.0503 135.504 15.1995L135.994 17.2165C136.414 17.3572 136.834 17.4276 137.37 17.4276C139.89 17.4276 141.313 15.9266 141.313 13.3702C141.313 10.72 139.96 9.2424 137.324 9.2424H136.32V8.37463H137.207C139.377 8.37463 140.893 7.06125 140.893 4.43448C140.893 2.20642 139.796 0.963396 137.86 0.963396C137.44 0.963396 136.997 1.0103 136.53 1.15102L136.017 3.14455C135.807 4.08268 135.317 4.41103 134.641 4.41103C134.174 4.41103 133.801 4.1765 133.614 3.75434C133.871 1.24484 136.087 0.212891 138.537 0.212891C141.803 0.212891 143.529 1.90153 143.529 4.34067C143.529 6.40456 142.269 8.11665 139.4 8.74989C142.689 9.1955 144.042 10.931 144.042 13.3936C144.042 16.2784 141.709 18.2016 138.163 18.2016Z" fill="white"/>
<path d="M121.64 18.2016C118.654 18.2016 116.858 16.8882 116.461 14.5428C116.671 13.9565 117.137 13.6751 117.627 13.6751C118.327 13.6751 118.771 14.0503 118.98 15.1995L119.47 17.2165C119.89 17.3572 120.31 17.4276 120.847 17.4276C123.366 17.4276 124.789 15.9266 124.789 13.3702C124.789 10.72 123.436 9.2424 120.8 9.2424H119.797V8.37463H120.683C122.853 8.37463 124.369 7.06125 124.369 4.43448C124.369 2.20642 123.273 0.963396 121.337 0.963396C120.917 0.963396 120.474 1.0103 120.007 1.15102L119.494 3.14455C119.284 4.08268 118.794 4.41103 118.117 4.41103C117.651 4.41103 117.277 4.1765 117.091 3.75434C117.347 1.24484 119.564 0.212891 122.013 0.212891C125.279 0.212891 127.006 1.90153 127.006 4.34067C127.006 6.40456 125.746 8.11665 122.876 8.74989C126.166 9.1955 127.519 10.931 127.519 13.3936C127.519 16.2784 125.186 18.2016 121.64 18.2016Z" fill="white"/>
<path d="M105.266 12.0556V10.6719H111.588V12.0556H105.266Z" fill="white"/>
<path d="M164.055 12.0556V10.6719H170.377V12.0556H164.055Z" fill="white"/>
<g clip-path="url(#clip0_115_172)">
<path d="M28.2891 18.7622C26.7815 18.7163 25.2444 17.3528 24.2683 16.3219C23.0772 15.0638 22.0254 13.555 21.1538 12.067C20.169 10.3863 19.2662 8.49065 18.7607 6.61045C18.341 5.04855 17.939 2.61103 19.5939 1.60363L21.5052 0.527344L24.4493 5.51153V5.5414L23.0544 6.33714C23.0419 6.35632 23.0679 6.39186 23.0781 6.41168C23.1534 6.5551 23.2515 6.70575 23.3347 6.8476C24.5681 8.95299 25.8185 11.0493 27.0512 13.155L28.4867 12.3746L31.4122 17.3576C31.4305 17.394 31.3972 17.3881 31.3706 17.4044C30.8022 17.7491 30.192 18.0957 29.608 18.415C29.2104 18.6323 28.8859 18.7389 28.4271 18.7619C28.3832 18.7641 28.3333 18.7632 28.2891 18.7619V18.7622Z" fill="white"/>
<path d="M22.7823 0.0031856C23.2881 0.0494199 23.4989 0.366769 23.7312 0.752055C24.3002 1.69656 24.8774 2.66873 25.4182 3.62833C25.6088 3.96612 25.7123 4.19887 25.5893 4.59359C25.4938 4.89899 25.2929 5.06442 25.0251 5.22105C24.9908 5.24118 24.8018 5.35284 24.7813 5.34969L21.836 0.345382C21.8341 0.326511 21.9122 0.287511 21.9308 0.276188C22.1368 0.153211 22.3585 0.0242584 22.6048 0.0031856C22.6526 -0.00090315 22.7349 -0.00121767 22.7823 0.0031856Z" fill="white"/>
<path d="M28.8128 12.1662C29.0082 12.0788 29.1828 11.9322 29.3943 11.8797C29.8155 11.775 30.2483 11.9322 30.5014 12.2747L32.4841 15.6259C32.609 15.8675 32.6478 16.1314 32.5738 16.3952C32.4585 16.8057 32.1131 17.0164 31.7486 17.1913L31.7374 17.1822L28.8125 12.1665L28.8128 12.1662Z" fill="white"/>
<path d="M28.801 0.703343C28.8676 0.696109 28.9012 0.708061 28.9631 0.722843C29.1287 0.761843 29.3177 0.827578 29.4792 0.884506C32.8682 2.07811 34.8448 5.55197 34.0984 9.03086C34.0753 9.13843 34.0513 9.26455 34.0176 9.36802C33.8889 9.76369 33.3894 9.62845 33.4221 9.26738C33.4356 9.11735 33.5153 8.89279 33.5461 8.7305C34.1221 5.67243 32.3957 2.62726 29.457 1.50662C29.2216 1.41667 28.9592 1.3632 28.7346 1.2764C28.4341 1.16034 28.4752 0.738255 28.8013 0.703028L28.801 0.703343Z" fill="white"/>
<path d="M28.2931 2.52301C28.4021 2.50886 28.6449 2.59661 28.757 2.63404C31.2866 3.48167 32.7916 6.08022 32.2095 8.66211C32.1855 8.76873 32.1531 8.95618 32.0743 9.03293C31.9154 9.18798 31.6236 9.10715 31.5739 8.89517C31.5473 8.78225 31.6332 8.53693 31.6572 8.41018C32.0708 6.22301 30.8464 4.04969 28.7423 3.24924C28.5709 3.18413 28.3835 3.14608 28.2201 3.08412C27.9247 2.97183 27.9962 2.56139 28.2935 2.52301H28.2931Z" fill="white"/>
<path d="M27.773 4.34398C27.8976 4.32323 28.0601 4.38519 28.1779 4.42607C29.7573 4.97397 30.7011 6.61764 30.3477 8.23647C30.325 8.34121 30.3064 8.46544 30.2276 8.5447C30.1103 8.66296 29.9053 8.65698 29.7929 8.53495C29.6481 8.37769 29.7541 8.1635 29.7852 7.98454C30.0017 6.72552 29.2678 5.47279 28.0642 5.01202C27.8678 4.93685 27.5747 4.92207 27.5414 4.67297C27.5222 4.53018 27.6237 4.36852 27.773 4.34367V4.34398Z" fill="white"/>
</g>
<path d="M0.484375 23H237.223V40H0.484375V23Z" fill="url(#paint0_radial_115_172)"/>
<path d="M213.802 39.1726L213.07 38.818C214.194 36.953 214.743 34.7334 214.743 32.5007C214.743 30.2679 214.194 28.0614 213.07 26.1833L213.802 25.8418C215.017 27.7987 215.735 29.9264 215.735 32.5007C215.735 35.088 215.017 37.2026 213.802 39.1726Z" fill="#0798B1"/>
<path d="M204.173 28.3764V29.7554H207.321V30.6485H204.173V31.9619H206.864V35.5474C206.864 35.994 206.799 36.2435 206.472 36.4011C206.171 36.5456 205.675 36.5588 204.956 36.5588C204.917 36.2961 204.8 35.9546 204.669 35.7051C205.231 35.7182 205.662 35.7182 205.793 35.7051C205.936 35.7051 205.975 35.6656 205.975 35.5343V32.855H204.173V37.5701H203.245V32.855H201.56V36.5193H200.671V31.9619H203.245V30.6485H200.07V29.7554H203.245V28.3764H201.547C201.338 28.8886 201.116 29.3614 200.893 29.7292C200.698 29.6109 200.266 29.4402 200.031 29.3614C200.619 28.4814 201.076 27.1681 201.338 25.9072L202.252 26.0911C202.135 26.5508 202.004 27.0367 201.86 27.4833H203.245V25.6445H204.173V27.4833H206.812V28.3764H204.173ZM209.176 26.7872V34.0108H208.262V26.7872H209.176ZM210.574 25.7365H211.515V36.2435C211.515 36.8871 211.371 37.176 210.979 37.3468C210.574 37.5175 209.856 37.5438 208.889 37.5438C208.837 37.268 208.706 36.8214 208.575 36.5193C209.346 36.5456 210.078 36.5456 210.3 36.5456C210.509 36.5325 210.574 36.4799 210.574 36.2567V25.7365Z" fill="#0798B1"/>
<path d="M187.607 33.0406L188.443 33.1982C188.26 34.4328 187.947 35.6937 187.516 36.5342C187.359 36.416 186.967 36.2322 186.758 36.1665C187.189 35.3653 187.463 34.1964 187.607 33.0406ZM190.442 33.2245L191.174 32.9881C191.552 33.7893 191.931 34.8268 192.049 35.5098L191.278 35.7725C191.16 35.0895 190.795 34.0388 190.442 33.2245ZM190.115 30.1118L190.834 29.7966C191.369 30.6371 191.944 31.7535 192.127 32.4627L191.356 32.8305C191.304 32.6072 191.226 32.3577 191.108 32.0819L189.972 32.1475V37.6112H189.096V32.2001L186.967 32.3051L186.888 31.4252C187.15 31.4252 187.45 31.412 187.751 31.3989C188.038 31.0574 188.339 30.6634 188.626 30.23C188.221 29.639 187.529 28.9035 186.915 28.3519L187.411 27.7083C187.542 27.8134 187.672 27.9316 187.803 28.0498C188.234 27.3143 188.691 26.3292 188.966 25.6069L189.828 25.9352C189.384 26.8152 188.835 27.8659 188.339 28.5751C188.652 28.8903 188.926 29.2056 189.135 29.4814C189.671 28.6539 190.168 27.8002 190.533 27.091L191.369 27.4588C190.612 28.6933 189.567 30.2431 188.665 31.3726C189.318 31.3464 190.037 31.307 190.755 31.2807C190.56 30.8736 190.337 30.4664 190.115 30.1118ZM198.607 27.9578V28.4569C198.372 34.3409 198.189 36.3766 197.653 37.0202C197.353 37.4011 197.065 37.493 196.569 37.5455C196.138 37.5849 195.341 37.5718 194.557 37.5193C194.531 37.2435 194.427 36.8232 194.244 36.5605C195.119 36.6393 195.916 36.6393 196.242 36.6393C196.491 36.6393 196.661 36.613 196.804 36.4423C197.235 35.9957 197.457 33.9994 197.653 28.8772H193.368C193.003 29.5733 192.584 30.2037 192.153 30.7159C191.97 30.5583 191.539 30.2694 191.304 30.1381C192.31 29.0479 193.146 27.3274 193.63 25.5938L194.609 25.817C194.387 26.5525 194.126 27.2749 193.813 27.9578H198.607ZM195.681 33.7893L194.832 34.2358C194.531 33.4346 193.799 32.1344 193.068 31.1756L193.852 30.7947C194.583 31.7141 195.367 32.9618 195.681 33.7893Z" fill="#0798B1"/>
<path d="M184.958 30.3983L185.729 30.7661C185.036 31.9087 184.187 33.1564 183.39 33.9576L182.607 33.4585C183.09 32.9332 183.665 32.1714 184.135 31.4096H180.425V36.3611C180.425 36.9653 180.268 37.2411 179.811 37.3855C179.354 37.53 178.596 37.5431 177.459 37.5431C177.394 37.2673 177.224 36.8733 177.093 36.5975C177.995 36.6369 178.87 36.6238 179.131 36.6106C179.367 36.5975 179.445 36.545 179.445 36.348V31.4096H174.062V30.4771H180.83C179.719 29.9124 178.23 29.2294 177.067 28.7303L177.564 28.008C178.282 28.2969 179.131 28.6515 179.928 29.0062C180.751 28.5333 181.705 27.8504 182.411 27.2068H175.291V26.3006H183.351L183.573 26.248L184.279 26.7865C183.351 27.719 182.058 28.7041 180.882 29.4527C181.418 29.6891 181.927 29.9387 182.293 30.1357L182.071 30.4771H184.762L184.958 30.3983Z" fill="#0798B1"/>
<path d="M166.198 25.5801H167.164C168.523 27.4976 170.796 29.4152 172.834 30.4265C172.586 30.676 172.351 31.0175 172.194 31.2933C170.195 30.1244 167.909 28.1937 166.733 26.5388C165.688 28.128 163.585 30.0719 161.39 31.359C161.272 31.1357 160.998 30.7942 160.789 30.5841C163.023 29.3495 165.192 27.2743 166.198 25.5801ZM167.243 34.1959V36.3367H172.338V37.2298H161.299V36.3367H166.25V34.1959H162.357V33.329H166.25V31.2802H162.945V30.4002H170.705V31.2802H167.243V33.329H171.201V34.1959H167.243Z" fill="#0798B1"/>
<path d="M149.255 27.917V29.7426H148.275V26.9977H153.188V25.6055H154.193V26.9977H159.158V29.7426H158.152V27.917H149.255ZM157.237 30.2811H150.196V29.3749H157.237V30.2811ZM156.271 36.4672H158.1C158.583 36.4672 158.675 36.2307 158.714 34.7335C158.936 34.878 159.341 35.0356 159.602 35.1144C159.498 36.9006 159.21 37.3603 158.178 37.3603H156.166C154.977 37.3603 154.664 37.0582 154.664 36.0206V32.6977H152.378C152.077 35.075 151.306 36.7561 148.262 37.6098C148.158 37.3734 147.897 36.9662 147.688 36.7824C150.47 36.0863 151.11 34.681 151.345 32.6977H147.975V31.7784H159.471V32.6977H155.631V36.0206C155.631 36.3884 155.722 36.4672 156.271 36.4672Z" fill="#0798B1"/>
<path d="M145.897 39.1726C144.695 37.2026 143.977 35.088 143.977 32.5007C143.977 29.9264 144.695 27.7987 145.897 25.8418L146.642 26.1833C145.505 28.0614 144.969 30.2679 144.969 32.5007C144.969 34.7334 145.505 36.953 146.642 38.818L145.897 39.1726Z" fill="#0798B1"/>
<path d="M139.156 36.7552C137.327 36.7552 136.164 35.0872 136.164 31.738C136.164 28.3889 137.327 26.7734 139.156 26.7734C140.972 26.7734 142.134 28.402 142.134 31.738C142.134 35.0872 140.972 36.7552 139.156 36.7552ZM139.156 35.7964C140.24 35.7964 140.972 34.5749 140.972 31.738C140.972 28.9274 140.24 27.7322 139.156 27.7322C138.058 27.7322 137.327 28.9274 137.327 31.738C137.327 34.5749 138.058 35.7964 139.156 35.7964Z" fill="#0798B1"/>
<path d="M131.914 36.7552C130.085 36.7552 128.922 35.0872 128.922 31.738C128.922 28.3889 130.085 26.7734 131.914 26.7734C133.73 26.7734 134.892 28.402 134.892 31.738C134.892 35.0872 133.73 36.7552 131.914 36.7552ZM131.914 35.7964C132.998 35.7964 133.73 34.5749 133.73 31.738C133.73 28.9274 132.998 27.7322 131.914 27.7322C130.816 27.7322 130.085 28.9274 130.085 31.738C130.085 34.5749 130.816 35.7964 131.914 35.7964Z" fill="#0798B1"/>
<path d="M126.456 31.4657C125.986 31.4657 125.594 31.0848 125.594 30.5595C125.594 30.0078 125.986 29.627 126.456 29.627C126.927 29.627 127.319 30.0078 127.319 30.5595C127.319 31.0848 126.927 31.4657 126.456 31.4657ZM126.456 36.7586C125.986 36.7586 125.594 36.3909 125.594 35.8524C125.594 35.3008 125.986 34.9199 126.456 34.9199C126.927 34.9199 127.319 35.3008 127.319 35.8524C127.319 36.3909 126.927 36.7586 126.456 36.7586Z" fill="#0798B1"/>
<path d="M121.041 36.7548C119.278 36.7548 117.984 35.6778 117.984 34.1937C117.984 32.9066 118.873 32.0135 119.748 31.5407V31.475C119.043 30.9891 118.455 30.2667 118.455 29.2554C118.455 27.7844 119.591 26.8125 121.081 26.8125C122.714 26.8125 123.707 27.8632 123.707 29.3473C123.707 30.3586 123.001 31.2255 122.426 31.672V31.7377C123.262 32.2236 124.046 32.946 124.046 34.2594C124.046 35.6647 122.844 36.7548 121.041 36.7548ZM121.695 31.3568C122.348 30.7789 122.688 30.1222 122.688 29.413C122.688 28.4674 122.1 27.6925 121.068 27.6925C120.179 27.6925 119.539 28.3229 119.539 29.2554C119.539 30.4112 120.571 30.9103 121.695 31.3568ZM121.068 35.8617C122.165 35.8617 122.91 35.1919 122.91 34.2331C122.91 32.946 121.734 32.4601 120.375 31.9084C119.604 32.4075 119.069 33.1693 119.069 34.0886C119.069 35.1131 119.918 35.8617 121.068 35.8617Z" fill="#0798B1"/>
<path d="M111.297 36.5855V35.5874H113.426V28.4032H111.728V27.6414C112.577 27.4838 113.191 27.2605 113.714 26.9453H114.628V35.5874H116.549V36.5855H111.297Z" fill="#0798B1"/>
<path d="M107.819 32.8146C106.67 32.8146 106.043 31.5669 105.219 31.5669C104.801 31.5669 104.436 31.8296 104.096 32.46L103.43 31.9872C103.965 31.0678 104.619 30.6738 105.259 30.6738C106.408 30.6738 107.022 31.9084 107.845 31.9084C108.263 31.9084 108.629 31.6457 108.956 31.0153L109.635 31.5013C109.1 32.4206 108.446 32.8146 107.819 32.8146Z" fill="#0798B1"/>
<path d="M99.2886 36.7552C97.4596 36.7552 96.2969 35.0872 96.2969 31.738C96.2969 28.3889 97.4596 26.7734 99.2886 26.7734C101.105 26.7734 102.267 28.402 102.267 31.738C102.267 35.0872 101.105 36.7552 99.2886 36.7552ZM99.2886 35.7964C100.373 35.7964 101.105 34.5749 101.105 31.738C101.105 28.9274 100.373 27.7322 99.2886 27.7322C98.1912 27.7322 97.4596 28.9274 97.4596 31.738C97.4596 34.5749 98.1912 35.7964 99.2886 35.7964Z" fill="#0798B1"/>
<path d="M92.0386 36.7552C90.2096 36.7552 89.0469 35.0872 89.0469 31.738C89.0469 28.3889 90.2096 26.7734 92.0386 26.7734C93.8545 26.7734 95.0172 28.402 95.0172 31.738C95.0172 35.0872 93.8545 36.7552 92.0386 36.7552ZM92.0386 35.7964C93.1229 35.7964 93.8545 34.5749 93.8545 31.738C93.8545 28.9274 93.1229 27.7322 92.0386 27.7322C90.9412 27.7322 90.2096 28.9274 90.2096 31.738C90.2096 34.5749 90.9412 35.7964 92.0386 35.7964Z" fill="#0798B1"/>
<path d="M86.5892 31.4657C86.1187 31.4657 85.7266 31.0848 85.7266 30.5595C85.7266 30.0078 86.1187 29.627 86.5892 29.627C87.0598 29.627 87.4519 30.0078 87.4519 30.5595C87.4519 31.0848 87.0598 31.4657 86.5892 31.4657ZM86.5892 36.7586C86.1187 36.7586 85.7266 36.3909 85.7266 35.8524C85.7266 35.3008 86.1187 34.9199 86.5892 34.9199C87.0598 34.9199 87.4519 35.3008 87.4519 35.8524C87.4519 36.3909 87.0598 36.7586 86.5892 36.7586Z" fill="#0798B1"/>
<path d="M79.2251 29.8993C79.2251 31.1995 79.7999 32.0401 80.9365 32.0401C81.5897 32.0401 82.3213 31.6592 82.9353 30.753C82.8047 28.7698 82.0731 27.7191 80.8451 27.7191C79.9306 27.7191 79.2251 28.5859 79.2251 29.8993ZM80.5838 36.7552C79.5517 36.7552 78.8201 36.3349 78.2845 35.7701L78.9507 35.0215C79.3427 35.4812 79.9306 35.757 80.5446 35.757C81.7857 35.757 82.8569 34.7325 82.9484 31.7512C82.3605 32.4735 81.5375 32.9332 80.7405 32.9332C79.1467 32.9332 78.1016 31.8956 78.1016 29.8993C78.1016 28.0343 79.3557 26.7734 80.8451 26.7734C82.6871 26.7734 84.0589 28.297 84.0589 31.3571C84.0589 35.2579 82.3866 36.7552 80.5838 36.7552Z" fill="#0798B1"/>
<path d="M66.5464 26.918H63.7246V28.0081H66.5464V26.918ZM63.7246 29.8863H66.5464V28.7305H63.7246V29.8863ZM67.474 30.6349H63.7246V37.5958H62.7578V26.1562H67.474V30.6349ZM69.5773 32.3817H66.5073V33.59H69.5773V32.3817ZM66.5073 35.5995H69.5773V34.3255H66.5073V35.5995ZM70.4788 36.3744H66.5073V37.0311H65.6319V31.6199H70.4788V36.3744ZM69.5643 29.8994H72.4907V28.7305H69.5643V29.8994ZM72.4907 26.918H69.5643V28.0081H72.4907V26.918ZM73.4705 26.1562V36.2956C73.4705 36.9129 73.3268 37.2412 72.8957 37.4119C72.4776 37.5696 71.7852 37.5827 70.7009 37.5827C70.6617 37.3069 70.5049 36.8472 70.3612 36.5845C71.1581 36.6239 71.955 36.6108 72.1902 36.5976C72.4123 36.5976 72.4907 36.5188 72.4907 36.2824V30.648H68.6367V26.1562H73.4705Z" fill="#0798B1"/>
<path d="M52.3061 27.3405H50.4118V30.2563H52.3061V27.3405ZM50.4118 34.1439H52.3061V31.11H50.4118V34.1439ZM53.2206 26.4606V35.0238H50.4118V36.0877H49.5234V26.4606H53.2206ZM54.2919 33.8155L55.0757 33.369C55.742 34.0257 56.4736 34.9582 56.7741 35.6017L55.951 36.1271C55.6506 35.4835 54.9582 34.5116 54.2919 33.8155ZM61.033 30.5583H59.3739V32.0425H60.8893V32.9093H59.3739V36.4292C59.3739 36.9808 59.2302 37.2697 58.8382 37.4142C58.4332 37.5587 57.78 37.5718 56.7218 37.5718C56.6826 37.3091 56.552 36.9151 56.4083 36.6656C57.2183 36.6918 57.9368 36.6918 58.1458 36.6787C58.3679 36.6656 58.4332 36.613 58.4332 36.416V32.9093H53.495V32.0425H58.4332V30.5583H53.4296V29.6915H56.7088V28.0235H53.9914V27.1567H56.7088V25.5938H57.6625V27.1567H60.4713V28.0235H57.6625V29.6915H61.033V30.5583Z" fill="#0798B1"/>
<path d="M39.2793 25.6855L40.2329 25.9876C39.841 26.9727 39.3838 27.9446 38.8481 28.8508V37.5585H37.8814V30.3612C37.4633 30.9522 37.0061 31.4907 36.5619 31.9504C36.4443 31.7271 36.1438 31.2149 35.9609 30.9916C37.2935 29.7176 38.5346 27.7213 39.2793 25.6855ZM47.8363 28.5093V29.4812H46.1772V36.2583C46.1772 36.9938 45.9681 37.2959 45.4848 37.4403C44.9753 37.5979 44.1 37.6111 42.689 37.5979C42.6368 37.3484 42.4539 36.9018 42.3102 36.6392C43.4076 36.6786 44.4788 36.6786 44.7924 36.6654C45.0798 36.6392 45.1974 36.5604 45.1974 36.2583V29.4812H39.9325V28.5093H45.1974V25.7512H46.1772V28.5093H47.8363ZM43.5513 34.0387L42.6498 34.5246C42.2579 33.7103 41.4218 32.305 40.7555 31.2543L41.5916 30.8603C42.271 31.8716 43.1332 33.2375 43.5513 34.0387Z" fill="#0798B1"/>
<path d="M33.0358 25.5527L33.7151 26.3408C31.1023 26.8924 27.0654 27.2207 23.6818 27.3521C23.6687 27.1025 23.5511 26.7479 23.4597 26.5246C26.8041 26.3802 30.8018 26.0387 33.0358 25.5527ZM29.5607 29.0595L28.6462 29.2827C28.5678 28.7705 28.2934 27.9562 27.993 27.3521L28.8683 27.1551C29.1818 27.7592 29.4692 28.5604 29.5607 29.0595ZM24.2435 30.2284V32.0146H23.329V29.3615H25.4063C25.2495 28.8887 24.8837 28.1664 24.544 27.6279L25.3801 27.3915C25.759 27.93 26.1509 28.6392 26.3077 29.112L25.5369 29.3615H31.2198C31.651 28.7049 32.1474 27.7986 32.4348 27.1288L33.4146 27.4309C33.0619 28.0744 32.6046 28.7837 32.2127 29.3615H34.4467V32.0146H33.493V30.2284H24.2435ZM31.4027 32.6187H26.3599C26.987 33.525 27.8623 34.2736 28.9205 34.8778C29.9395 34.2867 30.8018 33.5512 31.4027 32.6187ZM32.2127 31.6731L32.8529 32.0803C32.1735 33.4724 31.1415 34.5494 29.8612 35.3768C31.246 36.0073 32.879 36.4276 34.6949 36.6508C34.4859 36.861 34.2246 37.2944 34.107 37.5571C32.1343 37.2812 30.3837 36.7428 28.8944 35.9285C27.3267 36.7428 25.5108 37.255 23.6295 37.5571C23.525 37.3207 23.2507 36.8872 23.0547 36.6902C24.8314 36.4407 26.5298 36.0335 27.9668 35.3768C26.8956 34.6413 25.9941 33.7351 25.3279 32.6713L25.4585 32.6187H24.8967V31.7125H32.0168L32.2127 31.6731Z" fill="#0798B1"/>
<defs>
<radialGradient id="paint0_radial_115_172" cx="0" cy="0" r="1" gradientUnits="userSpaceOnUse" gradientTransform="translate(118.854 31.5) scale(118.369 41.2102)">
<stop stop-color="white"/>
<stop offset="0.878037" stop-color="white" stop-opacity="0.953197"/>
<stop offset="1" stop-color="white" stop-opacity="0"/>
</radialGradient>
<clipPath id="clip0_115_172">
<rect width="15.8637" height="18.7626" fill="white" transform="translate(18.3906)"/>
</clipPath>
</defs>
</svg>
