<svg width="169" height="34" viewBox="0 0 169 34" fill="none" xmlns="http://www.w3.org/2000/svg">
<path d="M63.2515 15.0383C60.7906 15.0383 58.5234 12.8486 58.5234 7.57797C58.5234 2.34606 60.7906 0.175781 63.2515 0.175781C65.7125 0.175781 67.9603 2.34606 67.9603 7.57797C67.9603 12.8486 65.7125 15.0383 63.2515 15.0383ZM63.2515 14.3988C64.5692 14.3988 65.8481 12.8293 65.8481 7.57797C65.8481 2.38481 64.5692 0.815237 63.2515 0.815237C61.9145 0.815237 60.655 2.36543 60.655 7.57797C60.655 12.8486 61.9145 14.3988 63.2515 14.3988Z" fill="#353535"/>
<path d="M45.1092 14.7282V13.43C46.33 12.0154 47.5508 10.6009 48.5003 9.49634C50.5737 7.05478 51.465 5.73711 51.465 3.8575C51.465 1.90037 50.4768 0.79586 48.8491 0.79586C48.4421 0.79586 48.0546 0.853993 47.6477 0.989634L47.202 2.81112C47.0082 3.77999 46.5625 4.05127 46.0781 4.05127C45.6324 4.05127 45.2449 3.79937 45.0898 3.37306C45.3418 1.26092 47.3376 0.175781 49.5467 0.175781C52.3176 0.175781 53.6741 1.66785 53.6741 3.95438C53.6741 5.87275 52.2789 7.30668 49.0816 10.2714C48.5003 10.814 47.4345 11.8798 46.3494 12.9843H54.1779V14.7282H45.1092Z" fill="#353535"/>
<path d="M33.5853 14.729V14.1671L36.0656 13.857L36.1044 10.2141V1.62986L33.5078 2.01741V1.37795L38.0809 0.273438L38.3716 0.486591L38.294 3.56761V10.2141L38.3328 13.857L40.6581 14.2058V14.7678L33.5853 14.729Z" fill="#353535"/>
<path d="M24.2047 15.0383C21.7437 15.0383 19.4766 12.8486 19.4766 7.57797C19.4766 2.34606 21.7437 0.175781 24.2047 0.175781C26.6656 0.175781 28.9134 2.34606 28.9134 7.57797C28.9134 12.8486 26.6656 15.0383 24.2047 15.0383ZM24.2047 14.3988C25.5223 14.3988 26.8012 12.8293 26.8012 7.57797C26.8012 2.38481 25.5223 0.815237 24.2047 0.815237C22.8676 0.815237 21.6081 2.36543 21.6081 7.57797C21.6081 12.8486 22.8676 14.3988 24.2047 14.3988Z" fill="#353535"/>
<path d="M163.395 15.0583V11.1828H157.523V10.0008L163.879 0.253906H165.371V9.7101H167.6V11.1828H165.371V15.0583H163.395ZM158.454 9.7101H163.395V2.03663L161.108 5.60208L158.454 9.7101Z" fill="#353535"/>
<path d="M149.696 15.0583V11.1828H143.824V10.0008L150.18 0.253906H151.672V9.7101H153.9V11.1828H151.672V15.0583H149.696ZM144.754 9.7101H149.696V2.03663L147.409 5.60208L144.754 9.7101Z" fill="#353535"/>
<path d="M130.644 14.7282V13.43C131.865 12.0154 133.086 10.6009 134.035 9.49634C136.109 7.05478 137 5.73711 137 3.8575C137 1.90037 136.012 0.79586 134.384 0.79586C133.977 0.79586 133.59 0.853993 133.183 0.989634L132.737 2.81112C132.543 3.77999 132.098 4.05127 131.613 4.05127C131.168 4.05127 130.78 3.79937 130.625 3.37306C130.877 1.26092 132.873 0.175781 135.082 0.175781C137.853 0.175781 139.209 1.66785 139.209 3.95438C139.209 5.87275 137.814 7.30668 134.617 10.2714C134.035 10.814 132.97 11.8798 131.885 12.9843H139.713V14.7282H130.644Z" fill="#353535"/>
<path d="M109.316 14.729V14.1671L111.796 13.857L111.835 10.2141V1.62986L109.238 2.01741V1.37795L113.811 0.273438L114.102 0.486591L114.025 3.56761V10.2141L114.063 13.857L116.389 14.2058V14.7678L109.316 14.729Z" fill="#353535"/>
<path d="M99.4893 15.0383C97.009 15.0383 95.5169 13.9532 95.1875 12.0154C95.3619 11.531 95.7494 11.2984 96.1564 11.2984C96.7377 11.2984 97.1059 11.6085 97.2803 12.558L97.6872 14.2244C98.036 14.3407 98.3848 14.3988 98.8305 14.3988C100.923 14.3988 102.105 13.1587 102.105 11.0465C102.105 8.85688 100.981 7.6361 98.7917 7.6361H97.9585V6.91914H98.6948C100.497 6.91914 101.756 5.834 101.756 3.66372C101.756 1.82287 100.846 0.79586 99.2374 0.79586C98.8886 0.79586 98.5204 0.834616 98.1329 0.95088L97.7066 2.59796C97.5322 3.37306 97.1252 3.64435 96.5633 3.64435C96.1757 3.64435 95.8657 3.45057 95.7107 3.10178C95.9238 1.02839 97.7647 0.175781 99.7993 0.175781C102.512 0.175781 103.946 1.57096 103.946 3.58621C103.946 5.29143 102.9 6.70598 100.516 7.22917C103.249 7.59735 104.372 9.03128 104.372 11.0659C104.372 13.4493 102.435 15.0383 99.4893 15.0383Z" fill="#353535"/>
<path d="M85.7666 15.0383C83.2863 15.0383 81.7943 13.9532 81.4648 12.0154C81.6392 11.531 82.0268 11.2984 82.4337 11.2984C83.015 11.2984 83.3832 11.6085 83.5576 12.558L83.9645 14.2244C84.3133 14.3407 84.6621 14.3988 85.1078 14.3988C87.2006 14.3988 88.3826 13.1587 88.3826 11.0465C88.3826 8.85688 87.2587 7.6361 85.069 7.6361H84.2358V6.91914H84.9722C86.7743 6.91914 88.0338 5.834 88.0338 3.66372C88.0338 1.82287 87.1231 0.79586 85.5147 0.79586C85.1659 0.79586 84.7978 0.834616 84.4102 0.95088L83.9839 2.59796C83.8095 3.37306 83.4026 3.64435 82.8406 3.64435C82.4531 3.64435 82.1431 3.45057 81.988 3.10178C82.2012 1.02839 84.042 0.175781 86.0767 0.175781C88.7895 0.175781 90.2235 1.57096 90.2235 3.58621C90.2235 5.29143 89.1771 6.70598 86.7936 7.22917C89.5259 7.59735 90.6498 9.03128 90.6498 11.0659C90.6498 13.4493 88.712 15.0383 85.7666 15.0383Z" fill="#353535"/>
<path d="M72.1641 9.95968V8.81641H77.4154V9.95968H72.1641Z" fill="#353535"/>
<path d="M120.996 9.95968V8.81641H126.247V9.95968H120.996Z" fill="#353535"/>
<g clip-path="url(#clip0_4_3683)">
<path d="M8.2218 15.4995C6.96957 15.4616 5.69285 14.3351 4.88206 13.4833C3.89273 12.4438 3.01915 11.1973 2.29511 9.96787C1.47714 8.57917 0.727285 7.013 0.30739 5.45955C-0.0411921 4.16908 -0.375139 2.15517 0.999498 1.32284L2.58701 0.433594L5.03241 4.5516V4.57629L3.87384 5.23373C3.86346 5.24958 3.88501 5.27895 3.89353 5.29532C3.95606 5.41382 4.03748 5.53829 4.10667 5.65549C5.13113 7.39499 6.16969 9.12696 7.19362 10.8667L8.38598 10.222L10.8159 14.339C10.8311 14.3691 10.8034 14.3642 10.7814 14.3777C10.3093 14.6625 9.80239 14.9489 9.31731 15.2126C8.98708 15.3922 8.71753 15.4803 8.33649 15.4993C8.30003 15.5011 8.25852 15.5003 8.2218 15.4993V15.4995Z" fill="#353535"/>
<path d="M3.64935 0.00263199C4.06951 0.0408314 4.2446 0.30303 4.43752 0.621359C4.9101 1.40172 5.3896 2.20495 5.83876 2.99778C5.99709 3.27687 6.08304 3.46917 5.98086 3.79529C5.90156 4.04762 5.73472 4.1843 5.51227 4.31371C5.4838 4.33034 5.3268 4.4226 5.30977 4.42L2.86331 0.28536C2.86171 0.269768 2.92664 0.237546 2.94207 0.228191C3.11317 0.126585 3.29731 0.0200426 3.50193 0.00263199C3.54158 -0.000746197 3.60997 -0.00100606 3.64935 0.00263199Z" fill="#353535"/>
<path d="M8.65652 10.0523C8.81883 9.98003 8.96385 9.85893 9.13948 9.81554C9.48939 9.729 9.84888 9.85893 10.0591 10.1419L11.7059 12.9107C11.8097 13.1103 11.8419 13.3283 11.7805 13.5464C11.6847 13.8855 11.3978 14.0596 11.095 14.2041L11.0857 14.1965L8.65625 10.0525L8.65652 10.0523Z" fill="#353535"/>
<path d="M8.6459 0.579919C8.70125 0.573942 8.72919 0.583817 8.78054 0.59603C8.91811 0.628253 9.07511 0.682564 9.20922 0.729598C12.0242 1.71577 13.666 4.58592 13.046 7.46024C13.0269 7.54911 13.0069 7.65331 12.979 7.73881C12.872 8.06571 12.4572 7.95397 12.4843 7.65565C12.4955 7.5317 12.5617 7.34616 12.5873 7.21207C13.0657 4.68545 11.6317 2.16948 9.19086 1.2436C8.99528 1.16928 8.77735 1.12511 8.59082 1.05338C8.34122 0.957496 8.37528 0.608763 8.64616 0.579659L8.6459 0.579919Z" fill="#353535"/>
<path d="M8.22925 2.0833C8.31972 2.0716 8.52142 2.1441 8.61455 2.17503C10.7156 2.87535 11.9657 5.02231 11.4822 7.15551C11.4623 7.2436 11.4354 7.39848 11.3699 7.46188C11.238 7.58999 10.9956 7.52321 10.9543 7.34806C10.9322 7.25477 11.0035 7.05208 11.0235 6.94736C11.367 5.14029 10.35 3.34466 8.60231 2.68331C8.45995 2.62952 8.30429 2.59808 8.16858 2.54689C7.92324 2.45412 7.98258 2.115 8.22952 2.0833H8.22925Z" fill="#353535"/>
<path d="M7.79589 3.58936C7.8994 3.57221 8.0343 3.6234 8.13223 3.65718C9.44407 4.10986 10.228 5.46789 9.93448 6.80539C9.91558 6.89192 9.90015 6.99457 9.83469 7.06005C9.7373 7.15776 9.567 7.15282 9.4736 7.052C9.35333 6.92207 9.44141 6.7451 9.46722 6.59724C9.6471 5.55702 9.03748 4.522 8.03776 4.1413C7.87465 4.0792 7.63117 4.06698 7.6035 3.86117C7.58753 3.7432 7.67189 3.60963 7.79589 3.5891V3.58936Z" fill="#353535"/>
</g>
<path d="M0 18.6016H168.196V33.3284H0V18.6016Z" fill="url(#paint0_radial_4_3683)"/>
<path d="M154.688 31.0646L154.145 30.8026C154.979 29.4246 155.387 27.7846 155.387 26.1349C155.387 24.4852 154.979 22.8548 154.145 21.4672L154.688 21.2148C155.59 22.6608 156.124 24.2328 156.124 26.1349C156.124 28.0466 155.59 29.609 154.688 31.0646Z" fill="#353535"/>
<path d="M147.537 23.0849V24.1038H149.876V24.7637H147.537V25.7341H149.536V28.3834C149.536 28.7133 149.488 28.8977 149.245 29.0141C149.022 29.1209 148.653 29.1306 148.119 29.1306C148.09 28.9365 148.003 28.6842 147.906 28.4998C148.323 28.5095 148.643 28.5095 148.74 28.4998C148.847 28.4998 148.876 28.4707 148.876 28.3736V26.394H147.537V29.8778H146.848V26.394H145.596V29.1015H144.936V25.7341H146.848V24.7637H144.49V24.1038H146.848V23.0849H145.587C145.431 23.4633 145.266 23.8127 145.101 24.0844C144.956 23.9971 144.636 23.8709 144.461 23.8127C144.898 23.1625 145.237 22.1921 145.431 21.2605L146.111 21.3963C146.023 21.736 145.926 22.095 145.82 22.425H146.848V21.0664H147.537V22.425H149.497V23.0849H147.537ZM151.254 21.9107V27.248H150.575V21.9107H151.254ZM152.292 21.1343H152.991V28.8977C152.991 29.3732 152.884 29.5867 152.593 29.7128C152.292 29.839 151.758 29.8584 151.04 29.8584C151.002 29.6546 150.905 29.3247 150.807 29.1015C151.38 29.1209 151.923 29.1209 152.088 29.1209C152.244 29.1112 152.292 29.0723 152.292 28.9074V21.1343Z" fill="#353535"/>
<path d="M135.228 26.5296L135.849 26.6461C135.714 27.5583 135.481 28.4899 135.16 29.1109C135.044 29.0236 134.753 28.8877 134.598 28.8392C134.918 28.2472 135.122 27.3836 135.228 26.5296ZM137.334 26.6655L137.878 26.4908C138.159 27.0827 138.441 27.8494 138.528 28.354L137.955 28.5481C137.868 28.0435 137.596 27.2671 137.334 26.6655ZM137.092 24.3656L137.625 24.1327C138.023 24.7537 138.45 25.5786 138.586 26.1026L138.014 26.3743C137.975 26.2094 137.916 26.025 137.829 25.8212L136.985 25.8697V29.9067H136.335V25.9085L134.753 25.9862L134.695 25.336C134.889 25.336 135.112 25.3263 135.335 25.3166C135.549 25.0643 135.772 24.7732 135.985 24.4529C135.685 24.0162 135.17 23.4728 134.714 23.0652L135.083 22.5897C135.18 22.6673 135.277 22.7547 135.374 22.842C135.694 22.2986 136.034 21.5708 136.238 21.037L136.878 21.2797C136.548 21.9298 136.141 22.7062 135.772 23.2302C136.005 23.4631 136.209 23.696 136.364 23.8998C136.762 23.2884 137.13 22.6576 137.402 22.1336L138.023 22.4053C137.46 23.3175 136.684 24.4626 136.014 25.2972C136.5 25.2778 137.033 25.2487 137.567 25.2293C137.422 24.9284 137.257 24.6276 137.092 24.3656ZM143.399 22.7741V23.1429C143.225 27.4903 143.089 28.9945 142.691 29.47C142.468 29.7514 142.254 29.8193 141.885 29.8581C141.565 29.8873 140.973 29.8775 140.391 29.8387C140.372 29.6349 140.294 29.3244 140.158 29.1303C140.808 29.1886 141.4 29.1886 141.643 29.1886C141.827 29.1886 141.953 29.1691 142.06 29.043C142.38 28.713 142.545 27.238 142.691 23.4534H139.508C139.236 23.9677 138.926 24.4335 138.605 24.812C138.47 24.6955 138.149 24.482 137.975 24.385C138.722 23.5795 139.343 22.3083 139.702 21.0273L140.43 21.1923C140.265 21.7357 140.071 22.2695 139.838 22.7741H143.399ZM141.226 27.0827L140.595 27.4127C140.372 26.8207 139.828 25.86 139.285 25.1516L139.867 24.8702C140.41 25.5495 140.993 26.4714 141.226 27.0827Z" fill="#353535"/>
<path d="M133.261 24.5821L133.834 24.8539C133.319 25.6981 132.689 26.62 132.097 27.212L131.514 26.8432C131.874 26.455 132.301 25.8922 132.65 25.3294H129.894V28.9878C129.894 29.4342 129.777 29.638 129.438 29.7448C129.098 29.8515 128.535 29.8612 127.691 29.8612C127.643 29.6574 127.516 29.3663 127.419 29.1625C128.089 29.1916 128.739 29.1819 128.933 29.1722C129.108 29.1625 129.166 29.1237 129.166 28.9781V25.3294H125.168V24.6404H130.195C129.37 24.2231 128.264 23.7185 127.4 23.3497L127.769 22.816C128.302 23.0295 128.933 23.2915 129.525 23.5535C130.137 23.2042 130.845 22.6995 131.369 22.224H126.08V21.5544H132.068L132.233 21.5156L132.757 21.9135C132.068 22.6025 131.107 23.3303 130.234 23.8834C130.631 24.0581 131.01 24.2425 131.282 24.3881L131.117 24.6404H133.116L133.261 24.5821Z" fill="#353535"/>
<path d="M119.326 21.0195H120.044C121.053 22.4363 122.742 23.8532 124.256 24.6004C124.071 24.7848 123.897 25.0371 123.78 25.2408C122.296 24.3772 120.597 22.9507 119.724 21.7279C118.948 22.9021 117.385 24.3384 115.755 25.2894C115.668 25.1244 115.464 24.8721 115.309 24.7168C116.968 23.8046 118.579 22.2714 119.326 21.0195ZM120.102 27.3855V28.9672H123.887V29.6271H115.687V28.9672H119.365V27.3855H116.473V26.745H119.365V25.2311H116.91V24.581H122.674V25.2311H120.102V26.745H123.043V27.3855H120.102Z" fill="#353535"/>
<path d="M106.739 22.747V24.0959H106.011V22.0677H109.66V21.0391H110.407V22.0677H114.094V24.0959H113.347V22.747H106.739ZM112.668 24.4937H107.437V23.8242H112.668V24.4937ZM111.95 29.0644H113.308C113.668 29.0644 113.735 28.8897 113.765 27.7835C113.93 27.8902 114.23 28.0067 114.424 28.0649C114.347 29.3847 114.133 29.7243 113.367 29.7243H111.872C110.989 29.7243 110.756 29.5011 110.756 28.7345V26.2793H109.058C108.835 28.0358 108.262 29.2779 106.001 29.9087C105.924 29.734 105.729 29.4332 105.574 29.2973C107.641 28.783 108.117 27.7446 108.291 26.2793H105.788V25.6H114.327V26.2793H111.474V28.7345C111.474 29.0062 111.542 29.0644 111.95 29.0644Z" fill="#353535"/>
<path d="M104.247 31.0646C103.354 29.609 102.82 28.0466 102.82 26.1349C102.82 24.2328 103.354 22.6608 104.247 21.2148L104.8 21.4672C103.956 22.8548 103.558 24.4852 103.558 26.1349C103.558 27.7846 103.956 29.4246 104.8 30.8026L104.247 31.0646Z" fill="#353535"/>
<path d="M99.2418 29.2775C97.8832 29.2775 97.0195 28.0451 97.0195 25.5705C97.0195 23.096 97.8832 21.9023 99.2418 21.9023C100.591 21.9023 101.454 23.1057 101.454 25.5705C101.454 28.0451 100.591 29.2775 99.2418 29.2775ZM99.2418 28.5691C100.047 28.5691 100.591 27.6666 100.591 25.5705C100.591 23.4938 100.047 22.6107 99.2418 22.6107C98.4266 22.6107 97.8832 23.4938 97.8832 25.5705C97.8832 27.6666 98.4266 28.5691 99.2418 28.5691Z" fill="#353535"/>
<path d="M93.859 29.2775C92.5004 29.2775 91.6367 28.0451 91.6367 25.5705C91.6367 23.096 92.5004 21.9023 93.859 21.9023C95.2079 21.9023 96.0715 23.1057 96.0715 25.5705C96.0715 28.0451 95.2079 29.2775 93.859 29.2775ZM93.859 28.5691C94.6644 28.5691 95.2079 27.6666 95.2079 25.5705C95.2079 23.4938 94.6644 22.6107 93.859 22.6107C93.0438 22.6107 92.5004 23.4938 92.5004 25.5705C92.5004 27.6666 93.0438 28.5691 93.859 28.5691Z" fill="#353535"/>
<path d="M89.8084 25.3664C89.4591 25.3664 89.168 25.085 89.168 24.6968C89.168 24.2892 89.4591 24.0078 89.8084 24.0078C90.1578 24.0078 90.4489 24.2892 90.4489 24.6968C90.4489 25.085 90.1578 25.3664 89.8084 25.3664ZM89.8084 29.2772C89.4591 29.2772 89.168 29.0055 89.168 28.6076C89.168 28.2 89.4591 27.9186 89.8084 27.9186C90.1578 27.9186 90.4489 28.2 90.4489 28.6076C90.4489 29.0055 90.1578 29.2772 89.8084 29.2772Z" fill="#353535"/>
<path d="M85.7864 29.2757C84.4763 29.2757 83.5156 28.48 83.5156 27.3834C83.5156 26.4324 84.1755 25.7725 84.8257 25.4232V25.3747C84.3017 25.0156 83.865 24.4819 83.865 23.7347C83.865 22.6478 84.7092 21.9297 85.8155 21.9297C87.0285 21.9297 87.7661 22.706 87.7661 23.8026C87.7661 24.5498 87.242 25.1903 86.815 25.5202V25.5688C87.4361 25.9278 88.0184 26.4615 88.0184 27.432C88.0184 28.4703 87.1256 29.2757 85.7864 29.2757ZM86.2716 25.2873C86.7568 24.8603 87.0091 24.3751 87.0091 23.8511C87.0091 23.1524 86.5724 22.5799 85.8058 22.5799C85.1459 22.5799 84.6704 23.0457 84.6704 23.7347C84.6704 24.5886 85.4371 24.9574 86.2716 25.2873ZM85.8058 28.6159C86.621 28.6159 87.1741 28.121 87.1741 27.4125C87.1741 26.4615 86.3007 26.1025 85.2915 25.6949C84.7189 26.0637 84.3211 26.6265 84.3211 27.3058C84.3211 28.0627 84.9518 28.6159 85.8058 28.6159Z" fill="#353535"/>
<path d="M78.5508 29.1502V28.4127H80.1326V23.1045H78.871V22.5417C79.5018 22.4252 79.9579 22.2602 80.3461 22.0273H81.0253V28.4127H82.4519V29.1502H78.5508Z" fill="#353535"/>
<path d="M75.9598 26.3669C75.1059 26.3669 74.6401 25.445 74.0287 25.445C73.7182 25.445 73.4464 25.6391 73.1941 26.1049L72.6992 25.7556C73.0971 25.0763 73.5823 24.7852 74.0578 24.7852C74.9118 24.7852 75.3679 25.6973 75.9792 25.6973C76.2898 25.6973 76.5615 25.5033 76.8041 25.0375L77.3087 25.3965C76.9108 26.0758 76.4256 26.3669 75.9598 26.3669Z" fill="#353535"/>
<path d="M69.6285 29.2775C68.2699 29.2775 67.4062 28.0451 67.4062 25.5705C67.4062 23.096 68.2699 21.9023 69.6285 21.9023C70.9774 21.9023 71.8411 23.1057 71.8411 25.5705C71.8411 28.0451 70.9774 29.2775 69.6285 29.2775ZM69.6285 28.5691C70.434 28.5691 70.9774 27.6666 70.9774 25.5705C70.9774 23.4938 70.434 22.6107 69.6285 22.6107C68.8134 22.6107 68.2699 23.4938 68.2699 25.5705C68.2699 27.6666 68.8134 28.5691 69.6285 28.5691Z" fill="#353535"/>
<path d="M64.2457 29.2775C62.8871 29.2775 62.0234 28.0451 62.0234 25.5705C62.0234 23.096 62.8871 21.9023 64.2457 21.9023C65.5946 21.9023 66.4582 23.1057 66.4582 25.5705C66.4582 28.0451 65.5946 29.2775 64.2457 29.2775ZM64.2457 28.5691C65.0511 28.5691 65.5946 27.6666 65.5946 25.5705C65.5946 23.4938 65.0511 22.6107 64.2457 22.6107C63.4305 22.6107 62.8871 23.4938 62.8871 25.5705C62.8871 27.6666 63.4305 28.5691 64.2457 28.5691Z" fill="#353535"/>
<path d="M60.1952 25.3664C59.8458 25.3664 59.5547 25.085 59.5547 24.6968C59.5547 24.2892 59.8458 24.0078 60.1952 24.0078C60.5445 24.0078 60.8356 24.2892 60.8356 24.6968C60.8356 25.085 60.5445 25.3664 60.1952 25.3664ZM60.1952 29.2772C59.8458 29.2772 59.5547 29.0055 59.5547 28.6076C59.5547 28.2 59.8458 27.9186 60.1952 27.9186C60.5445 27.9186 60.8356 28.2 60.8356 28.6076C60.8356 29.0055 60.5445 29.2772 60.1952 29.2772Z" fill="#353535"/>
<path d="M54.7252 24.2119C54.7252 25.1726 55.1522 25.7937 55.9964 25.7937C56.4816 25.7937 57.0251 25.5123 57.4812 24.8427C57.3841 23.3774 56.8407 22.601 55.9285 22.601C55.2492 22.601 54.7252 23.2415 54.7252 24.2119ZM55.7344 29.2775C54.9678 29.2775 54.4244 28.967 54.0265 28.5497L54.5214 27.9966C54.8125 28.3362 55.2492 28.54 55.7053 28.54C56.6272 28.54 57.4229 27.7831 57.4909 25.5802C57.0542 26.114 56.4428 26.4536 55.8509 26.4536C54.667 26.4536 53.8906 25.687 53.8906 24.2119C53.8906 22.8339 54.8222 21.9023 55.9285 21.9023C57.2968 21.9023 58.3157 23.028 58.3157 25.2891C58.3157 28.1712 57.0736 29.2775 55.7344 29.2775Z" fill="#353535"/>
<path d="M45.3064 22.0082H43.2103V22.8136H45.3064V22.0082ZM43.2103 24.2013H45.3064V23.3473H43.2103V24.2013ZM45.9954 24.7544H43.2103V29.8976H42.4922V21.4453H45.9954V24.7544ZM47.5578 26.0451H45.2773V26.9379H47.5578V26.0451ZM45.2773 28.4226H47.5578V27.4813H45.2773V28.4226ZM48.2274 28.9952H45.2773V29.4804H44.6271V25.4822H48.2274V28.9952ZM47.5481 24.211H49.7218V23.3473H47.5481V24.211ZM49.7218 22.0082H47.5481V22.8136H49.7218V22.0082ZM50.4496 21.4453V28.9369C50.4496 29.393 50.3429 29.6356 50.0226 29.7618C49.7121 29.8782 49.1978 29.8879 48.3923 29.8879C48.3632 29.6842 48.2468 29.3445 48.14 29.1504C48.732 29.1795 49.3239 29.1698 49.4986 29.1601C49.6636 29.1601 49.7218 29.1019 49.7218 28.9272V24.7641H46.8591V21.4453H50.4496Z" fill="#353535"/>
<path d="M34.7271 22.318H33.32V24.4723H34.7271V22.318ZM33.32 27.3448H34.7271V25.1031H33.32V27.3448ZM35.4064 21.6678V27.9949H33.32V28.781H32.6602V21.6678H35.4064ZM36.2022 27.1022L36.7844 26.7722C37.2793 27.2574 37.8228 27.9464 38.046 28.4219L37.4346 28.8101C37.2114 28.3346 36.6971 27.6165 36.2022 27.1022ZM41.2095 24.6955H39.9771V25.7921H41.1028V26.4326H39.9771V29.0333C39.9771 29.4409 39.8704 29.6544 39.5792 29.7611C39.2784 29.8678 38.7932 29.8776 38.0072 29.8776C37.978 29.6835 37.881 29.3923 37.7743 29.208C38.3759 29.2274 38.9096 29.2274 39.0649 29.2177C39.2299 29.208 39.2784 29.1691 39.2784 29.0236V26.4326H35.6102V25.7921H39.2784V24.6955H35.5617V24.055H37.9975V22.8226H35.979V22.1821H37.9975V21.0273H38.7059V22.1821H40.7923V22.8226H38.7059V24.055H41.2095V24.6955Z" fill="#353535"/>
<path d="M25.0508 21.0977L25.7592 21.3209C25.4681 22.0487 25.1284 22.7668 24.7306 23.4364V29.8702H24.0125V24.5523C23.7019 24.989 23.3623 25.3869 23.0323 25.7265C22.945 25.5616 22.7218 25.1831 22.5859 25.0181C23.5758 24.0768 24.4977 22.6018 25.0508 21.0977ZM31.407 23.1841V23.9022H30.1746V28.9095C30.1746 29.4529 30.0193 29.6761 29.6603 29.7829C29.2818 29.8993 28.6316 29.909 27.5836 29.8993C27.5448 29.715 27.4089 29.385 27.3022 29.1909C28.1173 29.22 28.9131 29.22 29.146 29.2103C29.3595 29.1909 29.4468 29.1327 29.4468 28.9095V23.9022H25.536V23.1841H29.4468V21.1462H30.1746V23.1841H31.407ZM28.2241 27.2695L27.5545 27.6286C27.2634 27.0269 26.6423 25.9886 26.1474 25.2122L26.7684 24.9211C27.2731 25.6683 27.9135 26.6776 28.2241 27.2695Z" fill="#353535"/>
<path d="M20.414 21L20.9186 21.5823C18.9778 21.9898 15.9792 22.2324 13.4658 22.3295C13.4561 22.1451 13.3688 21.8831 13.3008 21.7181C15.7851 21.6114 18.7546 21.3591 20.414 21ZM17.8327 23.591L17.1534 23.756C17.0952 23.3775 16.8914 22.7759 16.6682 22.3295L17.3184 22.1839C17.5513 22.6303 17.7647 23.2223 17.8327 23.591ZM13.8831 24.4547V25.7745H13.2038V23.8142H14.7468C14.6303 23.4649 14.3586 22.9311 14.1063 22.5333L14.7273 22.3586C15.0088 22.7565 15.2999 23.2805 15.4163 23.6298L14.8438 23.8142H19.0651C19.3853 23.329 19.7541 22.6594 19.9676 22.1645L20.6954 22.3877C20.4334 22.8632 20.0938 23.3872 19.8026 23.8142H21.462V25.7745H20.7536V24.4547H13.8831ZM19.201 26.2208H15.4552C15.921 26.8904 16.5711 27.4436 17.3572 27.89C18.1141 27.4533 18.7546 26.9098 19.201 26.2208ZM19.8026 25.5221L20.2781 25.823C19.7735 26.8516 19.0069 27.6474 18.0559 28.2587C19.0845 28.7245 20.2975 29.0351 21.6464 29.2C21.4912 29.3553 21.2971 29.6755 21.2097 29.8696C19.7444 29.6658 18.444 29.268 17.3378 28.6663C16.1733 29.268 14.8244 29.6464 13.427 29.8696C13.3494 29.6949 13.1456 29.3747 13 29.2291C14.3198 29.0448 15.5813 28.7439 16.6488 28.2587C15.853 27.7153 15.1834 27.0457 14.6885 26.2597L14.7856 26.2208H14.3683V25.5513H19.6571L19.8026 25.5221Z" fill="#353535"/>
<defs>
<radialGradient id="paint0_radial_4_3683" cx="0" cy="0" r="1" gradientUnits="userSpaceOnUse" gradientTransform="translate(84.0981 25.965) scale(84.0981 41.6064)">
<stop stop-color="#EFF9FA"/>
<stop offset="0.906686" stop-color="#EFF9FA"/>
<stop offset="1" stop-color="white" stop-opacity="0"/>
</radialGradient>
<clipPath id="clip0_4_3683">
<rect width="13.1767" height="15.502" fill="white"/>
</clipPath>
</defs>
</svg>
