<svg width="36" height="36" viewBox="0 0 36 36" fill="none" xmlns="http://www.w3.org/2000/svg">
<g clip-path="url(#clip0_4_4241)">
<path d="M18 3.2445C22.806 3.2445 23.376 3.2625 25.275 3.3495C30.153 3.5715 32.4315 5.886 32.6535 10.728C32.7405 12.6255 32.757 13.1955 32.757 18.0015C32.757 22.809 32.739 23.3775 32.6535 25.275C32.43 30.1125 30.1575 32.4315 25.275 32.6535C23.376 32.7405 22.809 32.7585 18 32.7585C13.194 32.7585 12.624 32.7405 10.7265 32.6535C5.8365 32.43 3.57 30.105 3.348 25.2735C3.261 23.376 3.243 22.8075 3.243 18C3.243 13.194 3.2625 12.6255 3.348 10.7265C3.5715 5.886 5.844 3.57 10.7265 3.348C12.6255 3.2625 13.194 3.2445 18 3.2445ZM18 0C13.1115 0 12.4995 0.021 10.5795 0.108C4.0425 0.408 0.4095 4.035 0.1095 10.578C0.021 12.4995 0 13.1115 0 18C0 22.8885 0.021 23.502 0.108 25.422C0.408 31.959 4.035 35.592 10.578 35.892C12.4995 35.979 13.1115 36 18 36C22.8885 36 23.502 35.979 25.422 35.892C31.953 35.592 35.595 31.965 35.8905 25.422C35.979 23.502 36 22.8885 36 18C36 13.1115 35.979 12.4995 35.892 10.5795C35.598 4.0485 31.9665 0.4095 25.4235 0.1095C23.502 0.021 22.8885 0 18 0ZM18 8.757C12.8955 8.757 8.757 12.8955 8.757 18C8.757 23.1045 12.8955 27.2445 18 27.2445C23.1045 27.2445 27.243 23.106 27.243 18C27.243 12.8955 23.1045 8.757 18 8.757ZM18 24C14.6865 24 12 21.315 12 18C12 14.6865 14.6865 12 18 12C21.3135 12 24 14.6865 24 18C24 21.315 21.3135 24 18 24ZM27.609 6.2325C26.415 6.2325 25.4475 7.2 25.4475 8.3925C25.4475 9.585 26.415 10.5525 27.609 10.5525C28.8015 10.5525 29.7675 9.585 29.7675 8.3925C29.7675 7.2 28.8015 6.2325 27.609 6.2325Z" fill="white"/>
</g>
<defs>
<clipPath id="clip0_4_4241">
<rect width="36" height="36" fill="white"/>
</clipPath>
</defs>
</svg>
